<?xml version='1.0' encoding='utf-8'?>
<svg xmlns="http://www.w3.org/2000/svg" width="3e3" height="1200" version="1.1" viewBox="0 0 793.75 317.5"> <g transform="translate(0 20.5)"> <path d="m22.538 22.994s17.912 170.11 29.584 187.39c15.483 22.921 36.167 15.517 58.656 18.447 23.443 3.0546 49.4 8.5226 120.44 5.8358 103.55-3.9161 221.9-26.104 244.58-21.784 22.679 4.3198 56.931 22.91 92.243 28.711 38.311 6.2944 44.518 4.3198 56.397 6.4797s69.824 17.517 82.042 17.135c12.218-0.38183 11.455-11.455 0.76362-16.036-10.691-4.5819-72.164-17.182-68.346-21.382 3.8182-4.2 90.492 20.618 105.38 18.709 14.891-1.9091 17.182-15.273 6.491-21-10.691-5.7273-92.401-16.418-91.255-22.909 1.1455-6.491 85.91 9.1637 106.53 8.4001 20.618-0.76365 21.764-19.473 2.2909-24.437-19.473-4.9637-103.86-12.218-103.86-17.946 0-5.7273 84.382-0.38182 98.51-4.5819 14.127-4.2 12.6-15.655-4.5818-20.237-17.182-4.5818-85.146-5.3455-95.073-8.0182-9.9274-2.6728-52.898-12.176-52.691-18.709 0.2067-6.5329 22.283-10.505 45.818-8.7819s43.891-13.425 35.509-24.055c-4.0189-5.0972-22.893-5.533-33.982-7.6364s-19.473-0.76364-38.946 0c-19.473 0.76365-30.164-3.4364-57.273 10.691-27.109 14.127-51.497 24.205-56.509 26.346-5.0128 2.1405-115.75-19.371-212.29-32.455-96.547-13.083-122.17-5.0674-124.86-8.7819-2.6904-3.7145 4.7044-8.2964 14.509-60.71-47.422-0.733-92.869 0.86434-160.09 11.317z" fill="#ebbc8a" style="paint-order:markers fill stroke"/> <path d="m164.89 11.525c-41.387-0.04241-83.534 2.3238-142.35 11.469 0 0 17.912 170.11 29.584 187.39 6.5101 9.6378 13.94 13.914 22.037 15.851 213.3-9.7907 412.61-34.434 417.71-38.006 5.3998-3.7798 14.579-40.498 11.34-44.818-2.769-3.692-101.39-42.879-244.28-66.329-68.739-7.1085-88.475-1.4599-90.817-4.693-2.6904-3.7145 4.704-8.2967 14.509-60.71-5.9278-0.09163-11.825-0.14676-17.737-0.15282zm517.82 68.668c-2.8949 3.3162-6.806 7.9542-14.405 10.14-15.907 4.5755-18.136 11.929 1.0993 17.238 17.315-3.1823 29.358-14.744 22.574-23.347-1.4699-1.8643-4.9318-3.104-9.2687-4.0308zm-69.697 4.0788c-1.9594 0.0622-4.1648 0.93044-6.1814 1.8611-4.9636 2.2909-14.487 16.503-1.9091 18.327 23.424 3.3977 14.51-3.4366 13.746-12.982-0.45339-5.6676-2.792-7.297-5.6557-7.206zm-27.116 1.4743c-6.1841 0.14049-16.352 6.3051-29.847 13.751-22.146 12.218-35.509 16.8-35.509 32.072 0 15.273 24.818 26.728 45.436 28.255 20.618 1.5273 48.11-6.1089 57.273-6.4907 9.1637-0.38182 14.891 32.073-12.218 41.236-27.109 9.1637-33.983-10.309-54.601-19.854-20.618-9.5455-44.673-15.655-50.4 0.76335-5.7273 16.418-2.2907 25.964 9.1639 34.364 11.455 8.4001 103.86 26.728 107.67 30.546 3.0939 3.0939 38.778 15.212 74.957 23.964 3.76 0.59164 6.7634 0.91346 8.6611 0.85416 12.218-0.38182 11.454-11.455 0.76334-16.037-10.691-4.5819-72.164-17.182-68.346-21.382 3.8182-4.2 90.492 20.619 105.38 18.709 14.891-1.9091 17.182-15.273 6.4907-21-10.691-5.7273-92.4-16.418-91.255-22.909 1.1455-6.491 85.91 9.1634 106.53 8.3998 20.618-0.76364 21.764-19.472 2.2908-24.436-19.473-4.9637-103.86-12.218-103.86-17.945s84.382-0.38229 98.51-4.5823c14.127-4.2 12.6-15.654-4.5816-20.236-17.182-4.5819-85.146-5.3461-95.073-8.0189-0.27785-0.0749-0.67084-0.17382-0.99886-0.25912-43.694-1.7216-75.427-9.5537-73.838-18.45 1.9091-10.691 5.1693-11.438 4.1999-22.909-0.51632-6.1097-2.8433-8.495-6.8074-8.405z" fill="#fff" opacity=".08" style="paint-order:markers fill stroke"/> <path d="m151.98 11.595c-28.687 0.34647-58.521 2.0486-94.66 6.5232 7.2926 41.683 29.601 112.41 40.37 123.67 11.879 12.419 89.096 5.9403 151.19 5.4003 62.097-0.53998 247.31 17.819 249.47 8.639 2.1599-9.1796-190.07-35.638-259.73-49.678-69.657-14.039-110.7-1.6199-116.09-7.5597-5.3224-5.8547 23.455-26.926 29.451-86.996z" fill="#fff" opacity=".1" style="paint-order:markers fill stroke"/> <path d="m22.538 22.994s17.912 170.11 29.584 187.39c15.483 22.921 36.167 15.517 58.656 18.447 23.443 3.0546 49.4 8.5226 120.44 5.8358 103.55-3.9161 221.9-26.104 244.58-21.784 22.679 4.3198 56.931 22.91 92.243 28.711 38.311 6.2944 44.518 4.3198 56.397 6.4797s69.824 17.517 82.042 17.135c12.218-0.38183 11.455-11.455 0.76362-16.036-10.691-4.5819-72.164-17.182-68.346-21.382 3.8182-4.2 90.492 20.618 105.38 18.709 14.891-1.9091 17.182-15.273 6.491-21-10.691-5.7273-92.401-16.418-91.255-22.909 1.1455-6.491 85.91 9.1637 106.53 8.4001 20.618-0.76365 21.764-19.473 2.2909-24.437-19.473-4.9637-103.86-12.218-103.86-17.946 0-5.7273 84.382-0.38182 98.51-4.5819 14.127-4.2 12.6-15.655-4.5818-20.237-17.182-4.5818-85.146-5.3455-95.073-8.0182-9.9274-2.6728-52.898-12.176-52.691-18.709 0.2067-6.5329 22.283-10.505 45.818-8.7819s43.891-13.425 35.509-24.055c-4.0189-5.0972-22.893-5.533-33.982-7.6364s-19.473-0.76364-38.946 0c-19.473 0.76365-30.164-3.4364-57.273 10.691-27.109 14.127-51.497 24.205-56.509 26.346-5.0128 2.1405-115.75-19.371-212.29-32.455-96.547-13.083-122.17-5.0674-124.86-8.7819-2.6904-3.7145 4.7044-8.2964 14.509-60.71-47.422-0.733-92.869 0.86434-160.09 11.317z" fill="none" stroke="#ecb675" stroke-linecap="round" stroke-linejoin="round" stroke-width="2.8572" style="paint-order:markers fill stroke"/> <path d="m715.65 185.41c0 7.6364-3.0546 14.509-3.0546 14.509m-3.4364-14.891c0 6.1091-2.2909 14.509-2.2909 14.509m45.437-6.1091-0.76364 9.9274m-24.437 22.909-3.8182 9.5455m-35.891-17.564c-2.2909 4.9637-4.2 10.691-4.2 10.691m8.7818-8.7819c-2.6727 5.7273-3.0546 9.9273-3.0546 9.9273m-1.1454 18.709c-1.9091 5.7273-2.2909 8.7819-2.2909 8.7819m-27.873-16.8-1.5273 8.4001m-21.764-17.946c-3.4364 3.8182-6.1091 11.073-6.1091 11.073m27.873-35.509c-2.6727 9.1637-9.9273 12.982-9.9273 12.982m18.709-42c0 9.5455-3.8182 17.946-3.8182 17.946m82.091-45.819 0.38183 11.073m-32.455-13.746-0.38184 12.218m-5.7273-12.982c0.76364 4.9637 1.1454 9.5455 0 12.6m-40.091-14.127 0.38183 14.127m-38.946-51.928c-0.3818-11.455-4.2-14.509-4.2-14.509m12.982 12.6c0-6.1091 0.38184-14.891 0.38184-14.891m10.691 15.273c0.38181-9.9273 1.1454-14.127 1.1454-14.127m0 72.928c-21 40.091-27.491 21.382-51.164 63.382m44.673-84.764c-16.036 41.237-30.927 28.255-55.746 67.964m29.4-21.382c-80.946-25.2-87.819-28.255-87.819-28.255m39.328 32.455c-29.4-32.073-42.382-31.691-42.382-31.691m103.09-3.4364c-59.946 37.037-110.35-8.0182-110.35-8.0182m-16.036-27.491c-9.9274 22.527-19.473 46.582-19.473 67.964m19.473-22.909c-12.6 15.655-11.073 22.146-10.691 27.873m20.618-80.182c-9.9274 22.146-6.1092 28.637-11.073 38.564" fill="none" opacity=".118" stroke="#e8700d" stroke-linecap="round" stroke-linejoin="round" stroke-width="2.8572" style="paint-order:markers fill stroke"/> </g> </svg>